<?xml version="1.0" standalone="no"?><!DOCTYPE svg PUBLIC "-//W3C//DTD SVG 1.1//EN" "http://www.w3.org/Graphics/SVG/1.1/DTD/svg11.dtd"><svg t="1615445010207" class="icon" viewBox="0 0 1331 1024" version="1.1" xmlns="http://www.w3.org/2000/svg" p-id="1301" width="83.1875" height="64" xmlns:xlink="http://www.w3.org/1999/xlink"><defs><style type="text/css"></style></defs><path d="M1138.87254031 992H753.76808938c-33.90856781 0-60.55101469-26.64244594-60.55101375-60.55101469v-266.42446219H404.99424781c-33.90856781 0-60.55101469-26.64244594-60.55101469-60.55101375v-256.73630062H92.55101469c-33.90856781 0-60.55101469-26.64244594-60.55101469-60.55101469s26.64244594-60.55101469 60.55101469-60.55101375h312.44323312c33.90856781 0 60.55101469 26.64244594 60.55101375 60.55101375v256.73630063h288.22282781c33.90856781 0 60.55101469 26.64244594 60.55101469 60.55101468v264.00242157h324.55343625c33.90856781 0 60.55101469 26.64244594 60.55101375 60.55101468s-26.64244594 62.97305437-60.55101375 62.97305438z" fill="#48537A" p-id="1302"></path><path d="M1146.13866219 543.92249469c-14.53224375 0-31.48652719-4.84408125-43.59673031-16.95428438l-363.30608532-365.72812594c-24.22040531-24.22040531-24.22040531-62.97305437 0-84.77141906 24.22040531-24.22040531 62.97305437-24.22040531 84.77142 0l365.72812594 365.72812594c24.22040531 24.22040531 24.22040531 62.97305437 0 84.77141906-12.11020312 9.6881625-26.64244594 16.95428438-43.59673031 16.95428438z" fill="#E7486A" p-id="1303"></path><path d="M1218.79987906 615.7117775h-220.40569219c-33.90856781 0-60.55101469-26.64244594-60.55101375-60.55101469s26.64244594-60.55101469 60.55101375-60.55101375H1218.79987906c33.90856781 0 60.55101469 26.64244594 60.55101375 60.55101375s-26.64244594 60.55101469-60.55101375 60.55101469z" fill="#E7486A" p-id="1304"></path><path d="M1218.79987906 615.7117775c-33.90856781 0-60.55101469-26.64244594-60.55101469-60.55101469v-220.40569125c0-33.90856781 26.64244594-60.55101469 60.55101469-60.55101468s60.55101469 26.64244594 60.55101375 60.55101468v220.40569125c0 31.48652719-26.64244594 60.55101469-60.55101375 60.55101469z" fill="#E7486A" p-id="1305"></path></svg>