<svg xmlns="http://www.w3.org/2000/svg" width="49.31" height="42" viewBox="0 0 49.31 42">
  <g id="组_461" data-name="组 461" transform="translate(-732 -1334)">
    <path id="路径_613" data-name="路径 613" d="M120.628,199.8c-.688,0-1.381-.036-2.069-.1l-.042-.006-.409-.059h-.083a6.115,6.115,0,0,1-.937-.095l-.142-.024h-.006a.257.257,0,0,1-.03-.006c-.024-.006-.047-.012-.065-.018a1.065,1.065,0,0,0-.2-.036c-.089-.024-.172-.042-.249-.059a.941.941,0,0,1-.125-.03c-.089-.024-.166-.042-.237-.053-.053-.012-.1-.024-.136-.03l-.053-.012-.053-.012a7.532,7.532,0,0,1-1.144-.291c-.095-.036-.178-.059-.249-.083a.385.385,0,0,1-.077-.024l-.053-.018-.059-.012c-.03-.006-.1-.024-.213-.059l-.041-.012-.041-.012a8.573,8.573,0,0,1-1.269-.457l-.4-.208-.041-.018a19.392,19.392,0,0,1-6.3-4.334l-.059-.059-.042-.047c-.154-.178-.314-.356-.492-.528-.053-.059-.107-.119-.16-.172a7.34,7.34,0,0,1-.5-.575l-.024-.036-.03-.03a1.346,1.346,0,0,1-.095-.113l-.018-.024-.036-.047c-.024-.036-.065-.089-.119-.154l-.03-.036c-.225-.273-.462-.575-.711-.943l-.024-.036-.018-.024c0-.006-.006-.012-.012-.018l-.042-.089-.053-.083a21.314,21.314,0,0,1-3.6-11.206l-.036-1.1H96l5.929-9.047,5.929,9.042h-3.9l.047,1.18a16.941,16.941,0,0,0,3.628,9.765l.012.012.012.018a1.239,1.239,0,0,0,.219.308,18.139,18.139,0,0,0,4.625,3.907l.267.154h.059a7.626,7.626,0,0,0,1.168.6l.2.083a11.253,11.253,0,0,0,1.109.421l.113.036.113.012a.839.839,0,0,1,.243.077l.036.018.036.012a6.468,6.468,0,0,0,.984.255l.113.024h.006l.208.036.095.018c.036.006.089.012.107.018l.065.024.071.012a4.6,4.6,0,0,0,.51.065l.178.018c.095.012.184.018.249.03l.113.024h.059l.119.018a2.071,2.071,0,0,0,.362.036h.006a14.461,14.461,0,0,0,1.571.083,16.452,16.452,0,0,0,9.409-2.97l.018-.006.065-.047a2.108,2.108,0,0,1,1.2-.4,1.455,1.455,0,0,1,.344.03,2.994,2.994,0,0,1,1.34.652l.042.059a2.164,2.164,0,0,1-.522,2.988A20.311,20.311,0,0,1,120.628,199.8ZM133.2,179.4h3.883l-.047-1.18a16.773,16.773,0,0,0-3.664-9.794v-.077l-.261-.314a16.588,16.588,0,0,0-5.988-4.524l-.213-.107a5.97,5.97,0,0,0-.9-.35l-.107-.036a1.977,1.977,0,0,0-.243-.083l-.332-.136-.474-.119a5.905,5.905,0,0,0-.67-.154h-.006a.718.718,0,0,0-.083-.03l-.018-.006-.018-.006c-.024-.006-.047-.012-.065-.018a1.549,1.549,0,0,0-.4-.071l-1.115-.184-.468-.065h-.024c-.528-.047-1.067-.071-1.6-.071a16.452,16.452,0,0,0-9.409,2.97l-.018.006-.065.042a2.108,2.108,0,0,1-1.2.4,1.455,1.455,0,0,1-.344-.03,2.035,2.035,0,0,1-1.352-.889l-.006-.012a2.162,2.162,0,0,1,.522-2.982,20.381,20.381,0,0,1,11.923-3.783h.32a14.776,14.776,0,0,1,1.619.059l.065.006h.065a.934.934,0,0,1,.166.018c.036.006.071.006.107.012h.018c.089.012.2.024.32.03a3.531,3.531,0,0,0,.51.065l.172.018c.095.012.184.018.249.03l.113.024h.065l.136.047h.065c.018,0,.036.006.059.006l.717.184,1.322.379.557.184,1.417.528.089.089.2.042.012.006.095.042a20.363,20.363,0,0,1,7.672,5.84l.036.047.16.16c.3.35.557.676.806,1.02v.077l.19.285a21.53,21.53,0,0,1,3.617,11.229l.036,1.085,1.085.012c.065,0,1.613.012,2.33.012.308,0,.368,0,.421-.006l.042-.006h.024c-.516.789-3.955,6.03-5.947,9.065Z" transform="translate(636 1176.2)" fill="#e7486a"/>
    <path id="路径_614" data-name="路径 614" d="M139.725,179.4h3.883l-.047-1.18a16.772,16.772,0,0,0-3.664-9.794v-.077l-.261-.314a16.588,16.588,0,0,0-5.988-4.524l-.213-.107a5.97,5.97,0,0,0-.9-.35l-.107-.036a1.977,1.977,0,0,0-.243-.083l-.332-.136-.474-.119a5.905,5.905,0,0,0-.67-.154H130.7a.718.718,0,0,0-.083-.03l-.018-.006-.018-.006c-.024-.006-.047-.012-.065-.018a1.548,1.548,0,0,0-.4-.071l-1.115-.184-.468-.065h-.024c-.528-.047-1.067-.071-1.6-.071a16.452,16.452,0,0,0-9.409,2.97l-.018.006-.065.042a2.108,2.108,0,0,1-1.2.4,1.455,1.455,0,0,1-.344-.03,2.035,2.035,0,0,1-1.352-.889l-.006-.012a2.162,2.162,0,0,1,.522-2.982A20.381,20.381,0,0,1,126.96,157.8h.32a14.776,14.776,0,0,1,1.619.059l.065.006h.065a.934.934,0,0,1,.166.018c.036.006.071.006.107.012h.018c.089.012.2.024.32.03a3.531,3.531,0,0,0,.51.065l.172.018c.095.012.184.018.249.03l.113.024h.065l.136.047h.065c.018,0,.036.006.059.006l.717.184,1.322.379.557.184,1.417.528.089.089.2.042.012.006.095.042a20.363,20.363,0,0,1,7.672,5.84l.036.047.16.16c.3.35.557.676.806,1.02v.077l.19.285a21.53,21.53,0,0,1,3.617,11.229l.036,1.085,1.085.012c.065,0,1.613.012,2.33.012.308,0,.368,0,.421-.006l.042-.006h.024c-.516.789-3.955,6.03-5.947,9.065Z" transform="translate(629.478 1176.2)" fill="#48537a"/>
  </g>
</svg>
