<?xml version="1.0" standalone="no"?><!DOCTYPE svg PUBLIC "-//W3C//DTD SVG 1.1//EN" "http://www.w3.org/Graphics/SVG/1.1/DTD/svg11.dtd"><svg t="1615445026088" class="icon" viewBox="0 0 1202 1024" version="1.1" xmlns="http://www.w3.org/2000/svg" p-id="1872" width="75.125" height="64" xmlns:xlink="http://www.w3.org/1999/xlink"><defs><style type="text/css"></style></defs><path d="M594.89060094 991.99405719c-15.72473344 0-31.56374531-0.82280625-47.28847875-2.28557157l-0.95994-0.13713375-9.34798875-1.34848781h-1.89702469a139.76271 139.76271 0 0 1-21.41580656-2.17129312l-3.24551156-0.54853688h-0.13713469a5.87391937 5.87391937 0 0 1-0.68567156-0.13713469 21.55294125 21.55294125 0 0 1-1.48562157-0.41140312 24.34133906 24.34133906 0 0 0-4.57114312-0.82280531c-2.03415844-0.54853688-3.93118313-0.95994-5.69107406-1.34848782a21.50722969 21.50722969 0 0 1-2.85696469-0.68567156 51.12823875 51.12823875 0 0 0-5.41680469-1.21135219c-1.21135313-0.27426844-2.28557156-0.54853688-3.10837781-0.68567156l-1.21135313-0.27426937-1.21135218-0.27426844a172.14926156 172.14926156 0 0 1-26.14694063-6.65101313c-2.17129313-0.82280625-4.06831781-1.34848687-5.69107406-1.89702468a8.79945094 8.79945094 0 0 1-1.75989-0.54853688l-1.21135313-0.41140312-1.34848687-0.27426844c-0.68567156-0.13713469-2.28557156-0.54853688-4.86826781-1.34848781l-0.93708469-0.27426844-0.93708375-0.27426844a195.94206281 195.94206281 0 0 1-29.00390531-10.4450625l-9.14228719-4.75398937-0.93708375-0.41140313a443.21806594 443.21806594 0 0 1-143.99101781-99.0566775l-1.34848782-1.34848781-0.95994-1.07421844a183.3485625 183.3485625 0 0 0-11.2450125-12.06781875 102.87358219 102.87358219 0 0 0-3.65691469-3.93118312 167.76096375 167.76096375 0 0 1-11.42785875-13.14203719l-0.54853687-0.82280625-0.68567156-0.68567156a30.76379531 30.76379531 0 0 1-2.17129313-2.58269625l-0.41140312-0.54853688-0.82280625-1.07421844a46.85422031 46.85422031 0 0 0-2.71983-3.51978093l-0.68567157-0.82280532a278.65690313 278.65690313 0 0 1-16.250415-21.55294125l-0.54853687-0.82280625-0.41140313-0.54853687c0-0.13713469-0.13713469-0.27426844-0.27426843-0.41140313l-0.95994-2.03415843-1.21135313-1.89702469a487.14675375 487.14675375 0 0 1-82.28058187-256.12116563l-0.82280532-25.14128906H32l135.51154687-206.77567219 135.51154688 206.66139375h-89.1372975l1.07421937 26.96974594a387.19870313 387.19870313 0 0 0 82.92054094 223.18607719l0.27426938 0.27426844 0.27426844 0.41140312a28.31823375 28.31823375 0 0 0 5.00540156 7.03956094 414.57985219 414.57985219 0 0 0 105.70769156 89.29728656l6.10247719 3.51978094h1.34848687a174.29769844 174.29769844 0 0 0 26.6954775 13.71343031l4.57114313 1.89702469a257.19538406 257.19538406 0 0 0 25.34699062 9.62225625l2.58269625 0.82280625 2.58269625 0.27426844a19.17594656 19.17594656 0 0 1 5.55393844 1.75989l0.82280625 0.41140312 0.82280531 0.27426844a147.83077781 147.83077781 0 0 0 22.49002594 5.82820781l2.58269625 0.54853781h0.13713469l4.75398843 0.82280532 2.17129313 0.41140312c0.82280625 0.13713469 2.03415844 0.27426844 2.44556156 0.41140313l1.48562156 0.54853687 1.62275625 0.27426844a105.13629844 105.13629844 0 0 0 11.65641563 1.48562156l4.06831781 0.41140313c2.17129313 0.27426844 4.20545156 0.41140312 5.69107406 0.68567156l2.58269532 0.54853687h1.34848781l2.71983 0.41140313a47.33419031 47.33419031 0 0 0 8.27376937 0.82280625h0.13713469a330.516525 330.516525 0 0 0 35.90633156 1.89702375 376.0222575 376.0222575 0 0 0 215.04944251-67.88147906l0.41140218-0.13713469 1.48562156-1.07421844a48.17985187 48.17985187 0 0 1 27.42686063-9.14228719 33.25506844 33.25506844 0 0 1 7.86236719 0.68567157 68.43001688 68.43001688 0 0 1 30.62666062 14.90192718l0.95994 1.34848782a49.45977188 49.45977188 0 0 1-11.93068406 68.29288218A464.22247031 464.22247031 0 0 1 594.89060094 991.99405719zM882.23267563 525.73742844h88.74874968l-1.07421843-26.96974594a383.35894312 383.35894312 0 0 0-83.74334719-223.84889344v-1.75989l-5.9653425-7.17669468a379.13063531 379.13063531 0 0 0-136.86003375-103.39926469l-4.86826782-2.44556157a136.44863063 136.44863063 0 0 0-20.57014593-7.99950093l-2.44556157-0.82280625a45.1857525 45.1857525 0 0 0-5.55393937-1.89702375l-7.58809781-3.10837781-10.83361032-2.71983a134.96300906 134.96300906 0 0 0-15.31333031-3.51978094h-0.13713375a16.410405 16.410405 0 0 0-1.89702469-0.68567157l-0.41140312-0.13713375-0.41140313-0.13713468a21.55294125 21.55294125 0 0 1-1.48562156-0.41140313 35.40350625 35.40350625 0 0 0-9.14228625-1.62275531l-25.48412437-4.2054525-10.69647563-1.48562156h-0.54853781a414.44271844 414.44271844 0 0 0-36.56914688-1.62275625 376.0222575 376.0222575 0 0 0-215.0494425 67.88148l-0.41140312 0.13713469-1.48562156 0.95994a48.17985187 48.17985187 0 0 1-27.42686063 9.14228718 33.25506844 33.25506844 0 0 1-7.86236625-0.68567156 46.51138406 46.51138406 0 0 1-30.90093-20.31873281l-0.13713375-0.27426844a49.41406031 49.41406031 0 0 1 11.93068406-68.15574844A465.82237031 465.82237031 0 0 1 590.54801469 31.98537219h7.31382937a337.71607594 337.71607594 0 0 1 37.00340531 1.34848781l1.4856225 0.13713375h1.48562157a21.34723969 21.34723969 0 0 1 3.79404843 0.41140312c0.82280625 0.13713469 1.62275625 0.13713469 2.44556157 0.27426844h0.41140312c2.03415844 0.27426844 4.57114313 0.54853688 7.31382938 0.68567156a80.70353719 80.70353719 0 0 0 11.65641562 1.48562157l3.93118406 0.41140312c2.17129313 0.27426844 4.20545156 0.41140312 5.69107313 0.68567156l2.58269625 0.54853688h1.48562156l3.10837781 1.07421937h1.48562157c0.41140312 0 0.82280625 0.13713469 1.34848687 0.13713375l16.38754969 4.2054525 30.2152575 8.66231625 12.73063406 4.20545157 32.38655156 12.06781875 2.03415844 2.03415937 4.57114406 0.95994 0.27426844 0.13713375 2.17129313 0.95994094a465.41096719 465.41096719 0 0 1 175.34906156 133.4773875l0.82280531 1.07421844 3.65691469 3.65691468c6.85671469 7.99950094 12.73063406 15.450465 18.42170813 23.31283219v1.75989l4.34258625 6.51387938a492.08358938 492.08358938 0 0 1 82.66912874 256.64684718l0.82280625 24.79845282 24.79845282 0.27426843c1.48562156 0 36.86627156 0.27426844 53.25382125 0.27426844 7.03956094 0 8.41090406 0 9.62225625-0.13713375l0.95994-0.13713469h0.54853781c-11.79355031 18.03316125-90.39436125 137.81997375-135.92295 207.18707532z" fill="#E7486A" p-id="1873"></path><path d="M882.30124344 525.73742844h88.74874875l-1.07421844-26.96974594a383.33608687 383.33608687 0 0 0-83.74334719-223.84889344v-1.75989l-5.9653425-7.17669468a379.13063531 379.13063531 0 0 0-136.86003375-103.39926469l-4.86826781-2.44556157a136.44863063 136.44863063 0 0 0-20.570145-7.99950093l-2.4455625-0.82280625a45.1857525 45.1857525 0 0 0-5.55393844-1.89702375l-7.58809875-3.10837781-10.83360937-2.71983a134.96300906 134.96300906 0 0 0-15.31333031-3.51978094h-0.20570157a16.410405 16.410405 0 0 0-1.89702468-0.68567157l-0.41140313-0.13713375-0.41140312-0.13713468a21.55294125 21.55294125 0 0 1-1.48562157-0.41140313 35.38065 35.38065 0 0 0-9.14228625-1.62275531l-25.48412437-4.2054525-10.69647563-1.48562156h-0.54853781a414.44271844 414.44271844 0 0 0-36.56914687-1.62275625 376.0222575 376.0222575 0 0 0-215.0494425 67.88148l-0.41140313 0.13713469-1.48562156 0.95994a48.17985187 48.17985187 0 0 1-27.42686063 9.14228718 33.25506844 33.25506844 0 0 1-7.86236625-0.68567156 46.51138406 46.51138406 0 0 1-30.90093-20.31873281l-0.13713375-0.27426844a49.41406031 49.41406031 0 0 1 11.93068407-68.15574844A465.82237031 465.82237031 0 0 1 590.54801469 32.05393906h7.31382937a337.71607594 337.71607594 0 0 1 37.00340531 1.34848781l1.4856225 0.13713469h1.48562157a21.34723969 21.34723969 0 0 1 3.79404843 0.41140219c0.82280625 0.13713469 1.62275625 0.13713469 2.44556157 0.27426844h0.41140312c2.03415844 0.27426844 4.57114313 0.54853688 7.31382938 0.68567156a80.70353719 80.70353719 0 0 0 11.65641562 1.48562156l3.93118406 0.41140313c2.17129313 0.27426844 4.20545156 0.41140312 5.69107313 0.68567156l2.58269625 0.54853781h1.48562156l3.10837781 1.07421844h1.48562157c0.41140312 0 0.82280625 0.13713469 1.34848687 0.13713375l16.38754969 4.2054525 30.2152575 8.66231625 12.73063406 4.2054525 32.38655156 12.06781875 2.03415844 2.03415844 4.57114406 0.95994 0.27426844 0.13713468 2.17129313 0.95994a465.41096719 465.41096719 0 0 1 175.34906156 133.4773875l0.82280531 1.07421938 3.65691469 3.65691469c6.85671469 7.99950094 12.73063406 15.450465 18.42170813 23.31283125v1.75989l4.34258625 6.51387937a492.08358938 492.08358938 0 0 1 82.66912874 256.64684719l0.82280625 24.79845281 24.79845282 0.27426938c1.48562156 0 36.86627156 0.27426844 53.25382125 0.27426843 7.03956094 0 8.41090406 0 9.62225625-0.13713468l0.95994-0.13713375h0.54853781c-11.79355031 18.03316125-90.39436125 137.81997375-135.92295 207.18707531z" fill="#48537A" p-id="1874"></path></svg>