<?xml version="1.0" standalone="no"?><!DOCTYPE svg PUBLIC "-//W3C//DTD SVG 1.1//EN" "http://www.w3.org/Graphics/SVG/1.1/DTD/svg11.dtd"><svg t="1615444985058" class="icon" viewBox="0 0 1295 1024" version="1.1" xmlns="http://www.w3.org/2000/svg" p-id="877" width="80.9375" height="64" xmlns:xlink="http://www.w3.org/1999/xlink"><defs><style type="text/css"></style></defs><path d="M1246.1176475 102.58823563C1246.1176475 142.1176475 1215.05882375 173.17647031 1175.52941188 173.17647031h-1072.94117625C63.05882375 173.17647031 32 142.1176475 32 102.58823563S63.05882375 32 102.58823563 32h1072.94117624C1215.05882375 32 1246.1176475 63.05882375 1246.1176475 102.58823563zM766.1176475 526.1176475c0 39.52941188-31.05882375 70.58823562-70.58823562 70.58823469h-592.94117625C63.05882375 596.70588219 32 565.64705844 32 526.1176475S63.05882375 455.52941187 102.58823563 455.52941187h592.94117625c39.52941188 0 70.58823562 31.05882375 70.58823562 70.58823563z" fill="#48537A" p-id="878"></path><path d="M1246.1176475 921.41176437c0 39.52941188-31.05882375 70.58823562-70.58823562 70.58823563h-1072.94117625C63.05882375 992 32 960.94117625 32 921.41176437S63.05882375 850.82352969 102.58823563 850.82352969h1072.94117624c39.52941188 0 70.58823562 31.05882375 70.58823563 70.58823469z" fill="#E7486A" p-id="879"></path></svg>