<?xml version="1.0" standalone="no"?><!DOCTYPE svg PUBLIC "-//W3C//DTD SVG 1.1//EN" "http://www.w3.org/Graphics/SVG/1.1/DTD/svg11.dtd"><svg t="1615445021072" class="icon" viewBox="0 0 1194 1024" version="1.1" xmlns="http://www.w3.org/2000/svg" p-id="1679" width="74.625" height="64" xmlns:xlink="http://www.w3.org/1999/xlink"><defs><style type="text/css"></style></defs><path d="M910.25156844 928.04231375l-791.27272782-67.70247938 4.23140532-52.89256125-44.4297525-27.50413218 440.06611593-704.52892594 571.23966938 226.380165-179.83471031 626.24793375z m-696.06611625-167.14049531l617.78512406 52.89256218 129.05785125-450.64462875-399.86776875-158.67768562-346.97520656 556.42975219z" fill="#E7486A" p-id="1680"></path><path d="M1069.94479156 407.49487625c-44.4297525 0-80.39669437-35.96694188-80.39669437-80.39669437v-12.694215c0-44.4297525 35.96694188-80.39669437 80.39669437-80.39669438 44.4297525 2.11570219 80.39669437 35.96694188 80.39669344 80.39669438v12.694215c0 44.4297525-35.96694188 80.39669437-80.39669344 80.39669437z" fill="#48537A" p-id="1681"></path><path d="M1069.94479156 407.49487625c-44.4297525 0-80.39669437-35.96694188-80.39669437-80.39669437v-12.694215c0-44.4297525 35.96694188-80.39669437 80.39669437-80.39669438s80.39669437 35.96694188 80.39669344 80.39669438v12.694215c0 44.4297525-35.96694188 80.39669437-80.39669344 80.39669437z m-25.38843-86.74380188c4.23140531 12.694215 14.80991719 21.15702469 25.38843 21.15702469s23.27272688-8.46280969 25.38842906-21.15702468c-2.11570219-10.57851281-12.694215-19.0413225-25.38842906-19.0413225-10.57851281 0-21.15702469 8.46280969-25.38843 19.0413225zM825.51768406 992c-44.4297525 0-80.39669437-35.96694188-80.39669437-80.39669437v-12.694215c0-44.4297525 35.96694188-80.39669437 80.39669437-80.39669438 44.4297525 2.11570219 80.39669437 35.96694188 80.39669438 80.39669438v12.694215c0 44.4297525-35.96694188 80.39669437-80.39669438 80.39669437z" fill="#48537A" p-id="1682"></path><path d="M825.51768406 992c-44.4297525 0-80.39669437-35.96694188-80.39669437-80.39669437v-12.694215c0-44.4297525 35.96694188-80.39669437 80.39669437-80.39669438 44.4297525 2.11570219 80.39669437 35.96694188 80.39669438 80.39669438v12.694215c0 44.4297525-35.96694188 80.39669437-80.39669438 80.39669437z m-25.38843-86.74380188c4.23140531 12.694215 14.80991719 21.15702469 25.38843 21.15702469s23.27272688-8.46280969 25.38842906-21.15702468c-2.11570219-10.57851281-12.694215-19.0413225-25.38842906-19.0413225-10.57851281 0-21.15702469 8.46280969-25.38843 19.0413225z" fill="#48537A" p-id="1683"></path><path d="M516.83669187 205.48760375c-44.4297525 0-80.39669437-35.96694188-80.39669437-80.39669437v-12.694215c0-44.4297525 35.96694188-80.39669437 80.39669438-80.39669438 44.4297525 2.11570219 80.39669437 35.96694188 80.39669437 80.39669438v12.694215c0 44.4297525-35.96694188 80.39669437-80.39669437 80.39669437z" fill="#48537A" p-id="1684"></path><path d="M516.83669187 205.48760375c-44.4297525 0-80.39669437-35.96694188-80.39669437-80.39669437v-12.694215c0-44.4297525 35.96694188-80.39669437 80.39669438-80.39669438 44.4297525 2.11570219 80.39669437 35.96694188 80.39669437 80.39669438v12.694215c0 44.4297525-35.96694188 80.39669437-80.39669437 80.39669437z m-25.38842999-86.74380188c4.23140531 12.694215 14.80991719 21.15702469 25.38842999 21.15702469s23.27272688-8.46280969 25.38843001-21.15702468c-2.11570219-10.57851281-12.694215-19.0413225-25.38843001-19.0413225s-21.15702469 8.46280969-25.38842999 19.0413225z" fill="#48537A" p-id="1685"></path><path d="M112.39900625 896.34909125c-44.4297525 0-80.39669437-35.96694188-80.39669437-80.39669437v-12.694215c0-44.4297525 35.96694188-80.39669437 80.39669437-80.39669438 44.4297525 2.11570219 80.39669437 35.96694188 80.39669437 80.39669438v12.694215c0 44.4297525-35.96694188 80.39669437-80.39669437 80.39669437z" fill="#48537A" p-id="1686"></path><path d="M112.39900625 896.34909125c-44.4297525 0-80.39669437-35.96694188-80.39669437-80.39669437v-12.694215c0-44.4297525 35.96694188-80.39669437 80.39669437-80.39669438 44.4297525 2.11570219 80.39669437 35.96694188 80.39669437 80.39669438v12.694215c0 44.4297525-35.96694188 80.39669437-80.39669437 80.39669437z m-25.38843-86.74380188c4.23140531 12.694215 14.80991719 21.15702469 25.38843 21.15702469 12.694215 0 23.27272688-8.46280969 25.38843-19.0413225-2.11570219-12.694215-12.694215-21.15702469-25.38843-21.15702468s-21.15702469 8.46280969-25.38843 19.0413225z" fill="#48537A" p-id="1687"></path></svg>