<svg xmlns="http://www.w3.org/2000/svg" width="52.793" height="45.32" viewBox="0 0 52.793 45.32">
  <g id="组_466" data-name="组 466" transform="translate(-720.455 -1554.703)">
    <g id="组_443" data-name="组 443" transform="translate(-77 40)">
      <path id="路径_612" data-name="路径 612" d="M-1409.545,1557.263l19.7-31.557,22.953,9.112-7.311,25.459-35.34-3.014" transform="translate(2211.251 -5.974)" fill="none" stroke="#e7486a" stroke-width="5"/>
      <g id="矩形_513" data-name="矩形 513" transform="translate(850.248 1532.396) rotate(180)" fill="#48537a" stroke="#48537a" stroke-width="5">
        <rect width="7.535" height="8.145" rx="3.767" stroke="none"/>
        <rect x="2.5" y="2.5" width="2.535" height="3.145" rx="1.267" fill="none"/>
      </g>
      <g id="矩形_511" data-name="矩形 511" transform="translate(838.695 1560.023) rotate(180)" fill="#48537a" stroke="#48537a" stroke-width="5">
        <rect width="7.535" height="8.145" rx="3.767" stroke="none"/>
        <rect x="2.5" y="2.5" width="2.535" height="3.145" rx="1.267" fill="none"/>
      </g>
      <g id="矩形_510" data-name="矩形 510" transform="translate(824.105 1522.848) rotate(180)" fill="#48537a" stroke="#48537a" stroke-width="5">
        <rect width="7.535" height="8.145" rx="3.767" stroke="none"/>
        <rect x="2.5" y="2.5" width="2.535" height="3.145" rx="1.267" fill="none"/>
      </g>
      <g id="矩形_515" data-name="矩形 515" transform="translate(804.989 1555.502) rotate(180)" fill="#48537a" stroke="#48537a" stroke-width="5">
        <rect width="7.535" height="8.145" rx="3.767" stroke="none"/>
        <rect x="2.5" y="2.5" width="2.535" height="3.145" rx="1.267" fill="none"/>
      </g>
    </g>
  </g>
</svg>
