<?xml version="1.0" standalone="no"?><!DOCTYPE svg PUBLIC "-//W3C//DTD SVG 1.1//EN" "http://www.w3.org/Graphics/SVG/1.1/DTD/svg11.dtd"><svg t="1615444996958" class="icon" viewBox="0 0 1024 1024" version="1.1" xmlns="http://www.w3.org/2000/svg" p-id="1064" width="64" height="64" xmlns:xlink="http://www.w3.org/1999/xlink"><defs><style type="text/css"></style></defs><path d="M749.12757013 298.37881387h-593.9514592c-35.23440853 0-62.91858667-27.68417813-62.91858666-62.91858667s27.68417813-62.91858667 62.91858666-62.91858667h593.9514592c35.23440853 0 62.91858667 27.68417813 62.91858667 62.91858667s-27.68417813 62.91858667-62.91858667 62.91858667z" fill="#48537A" p-id="1065"></path><path d="M867.41451307 852.0623776h-593.9514592c-35.23440853 0-62.91858667-27.68417813-62.91858667-62.91858667s27.68417813-62.91858667 62.91858667-62.91858666h593.9514592c35.23440853 0 62.91858667 27.68417813 62.91858666 62.91858666s-30.2009216 62.91858667-62.91858666 62.91858667z" fill="#E7486A" p-id="1066"></path><path d="M908.38709653 277.9428576l-163.58832533 163.58832533c-25.16743467 25.16743467-65.43533013 25.16743467-88.08602133 0-25.16743467-25.16743467-25.16743467-65.43533013 0-88.08602133l163.58832533-163.5883264c25.16743467-25.16743467 65.43533013-25.16743467 88.08602133 0 25.16743467 25.16743467 25.16743467 65.43533013 0 88.0860224z" fill="#48537A" p-id="1067"></path><path d="M908.38709653 277.9428576c-25.16743467 25.16743467-65.43533013 25.16743467-88.08602133 0L656.71274987 116.87127467c-25.16743467-25.16743467-25.16743467-65.43533013 0-88.08602134 25.16743467-25.16743467 65.43533013-25.16743467 88.08602133 0L908.38709653 192.37357867c25.16743467 22.6506912 25.16743467 62.91858667 0 85.56927893z" fill="#48537A" p-id="1068"></path><path d="M113.09616 743.54039893l163.58832533-163.58832533c25.16743467-25.16743467 65.43533013-25.16743467 88.08602134 0 25.16743467 25.16743467 25.16743467 65.43533013 0 88.08602133l-163.58832534 163.5883264c-25.16743467 25.16743467-65.43533013 25.16743467-88.08602133 0-25.16743467-22.6506912-25.16743467-62.91858667 0-88.0860224z" fill="#E7486A" p-id="1069"></path><path d="M113.09616 743.54039893c25.16743467-25.16743467 65.43533013-25.16743467 88.08602133 0l163.58832534 163.5883264c25.16743467 25.16743467 25.16743467 65.43533013 0 88.08602134-25.16743467 25.16743467-65.43533013 25.16743467-88.08602134 0l-163.58832533-163.58832534c-25.16743467-22.6506912-25.16743467-62.91858667 0-88.0860224z" fill="#E7486A" p-id="1070"></path></svg>