<?xml version="1.0" standalone="no"?><!DOCTYPE svg PUBLIC "-//W3C//DTD SVG 1.1//EN" "http://www.w3.org/Graphics/SVG/1.1/DTD/svg11.dtd"><svg t="1615445016163" class="icon" viewBox="0 0 1024 1024" version="1.1" xmlns="http://www.w3.org/2000/svg" p-id="1490" width="64" height="64" xmlns:xlink="http://www.w3.org/1999/xlink"><defs><style type="text/css"></style></defs><path d="M353.61064344 992h-236.274945c-46.82926875 0-85.14412406-38.31485625-85.14412406-85.14412406V117.14412406c0-46.82926875 38.31485625-85.14412406 85.14412406-85.14412406h236.274945c46.82926875 0 85.14412406 38.31485625 85.14412406 85.14412406v789.71175188c0 46.82926875-38.31485625 85.14412406-85.14412406 85.14412406z m-193.7028825-127.71618656h151.13082V159.71618656h-151.13082v704.56762688z" fill="#E7486A" p-id="1491"></path><path d="M907.04745031 992h-236.274945c-46.82926875 0-85.14412406-38.31485625-85.14412406-85.14412406V649.29490062c0-46.82926875 38.31485625-85.14412406 85.14412406-85.14412499h236.274945c46.82926875 0 85.14412406 38.31485625 85.14412406 85.14412499v257.56097532c0 46.82926875-38.31485625 85.14412406-85.14412406 85.14412406z m-193.7028825-127.71618656h151.13082V691.86696219h-151.13082v172.41685125z" fill="#48537A" p-id="1492"></path><path d="M138.13215031 595.78181844h212.86031063v106.43015531h-212.86031063z" fill="#E7486A" p-id="1493"></path><path d="M138.13215031 340.34944531h212.86031063v106.43015531h-212.86031063z" fill="#E7486A" p-id="1494"></path></svg>